<svg width="80" height="17" viewBox="0 0 80 17" fill="none" xmlns="http://www.w3.org/2000/svg">
<path d="M74.1947 10.2132L71.167 3.44836L68.1142 10.2132H74.1947ZM80 16.6706H77.0973L75.1956 12.4755H67.0883L65.1616 16.6706H62.284L69.8908 0.285568H72.6183L80 16.6706Z" fill="white"/>
<path d="M61.4033 0.285568L54.4971 9.75198V16.6706H51.7696V9.75198L44.8634 0.285568H48.1163L53.1208 7.4897L58.2755 0.285568H61.4033Z" fill="white"/>
<path d="M37.9805 10.2132L34.9527 3.44836L31.9 10.2132H37.9805ZM43.7857 16.6706H40.8831L38.9814 12.4755H30.8741L28.9473 16.6706H26.0697L33.6766 0.285568H36.4041L43.7857 16.6706Z" fill="white"/>
<path d="M23.8445 16.6706H14.3359V0.285568H23.5693V2.52588H17.0634V7.09435H23.2189V9.33467H17.0634V14.4083H23.8445V16.6706Z" fill="white"/>
<path d="M9.23333 2.81137C8.39925 2.44531 7.28157 2.26227 5.88031 2.26227C3.71168 2.26227 2.62737 2.96512 2.62737 4.3708C2.62737 5.04436 3.30298 5.75452 4.6542 6.50129C5.77188 7.13092 6.64767 7.62877 7.28157 7.99483C7.91548 8.3609 8.29916 8.6025 8.43261 8.71964C9.78383 9.75926 10.4594 10.9599 10.4594 12.3217C10.4594 13.8445 9.79217 15.0379 8.45763 15.9018C7.32328 16.6339 5.96372 17 4.37895 17C2.79419 17 1.34288 16.7438 0.0250224 16.2313L0.350316 13.7933C1.60145 14.4083 2.97769 14.7158 4.47904 14.7158C6.69771 14.7158 7.80705 13.8592 7.80705 12.146C7.80705 11.4724 7.13144 10.7403 5.78022 9.94961C4.56245 9.23213 3.63662 8.68303 3.00271 8.30233C2.38549 7.92162 2.05185 7.71662 2.00181 7.68734C0.667269 6.677 0 5.57149 0 4.3708C0 3.00904 0.600542 1.91817 1.80163 1.09819C2.88594 0.366064 4.25384 0 5.90533 0C7.27323 0 8.5327 0.190353 9.68374 0.571059L9.23333 2.81137Z" fill="white"/>
</svg>
