<svg width="24" height="27" viewBox="0 0 24 27" fill="none" xmlns="http://www.w3.org/2000/svg">
<path d="M12 12.8081C11.1753 12.8081 10.469 12.4774 9.881 11.8159C9.293 11.1544 8.99933 10.3601 9 9.43311C9.00067 8.50611 9.29433 7.71111 9.881 7.04811C10.4677 6.38511 11.174 6.05549 12 6.05924C12.826 6.06299 13.5323 6.39299 14.119 7.04924C14.7057 7.70549 14.9993 8.50049 15 9.43424C15.0007 10.368 14.707 11.1622 14.119 11.817C13.531 12.4717 12.8247 12.8014 12 12.8081ZM5 20.943V19.0912C5 18.627 5.12 18.1927 5.36 17.7885C5.60067 17.3835 5.924 17.0692 6.33 16.8457C7.274 16.3365 8.21867 15.9547 9.164 15.7005C10.1087 15.4455 11.054 15.318 12 15.318C12.946 15.318 13.8917 15.4455 14.837 15.7005C15.7823 15.9555 16.7263 16.3372 17.669 16.8457C18.0757 17.0692 18.399 17.3835 18.639 17.7885C18.8797 18.1927 19 18.627 19 19.0912V20.943H5ZM6 19.818H18V19.0912C18 18.8422 17.9283 18.6079 17.785 18.3881C17.6423 18.1691 17.4447 17.9839 17.192 17.8324C16.3693 17.3839 15.5207 17.0404 14.646 16.8019C13.7713 16.5634 12.8893 16.4437 12 16.443C11.1107 16.4422 10.2287 16.5615 9.354 16.8007C8.47933 17.04 7.63067 17.3835 6.808 17.8312C6.55467 17.9827 6.357 18.168 6.215 18.387C6.07167 18.6067 6 18.8415 6 19.0912V19.818ZM12 11.6842C12.55 11.6842 13.021 11.4637 13.413 11.0227C13.805 10.5817 14.0007 10.0515 14 9.43199C13.9993 8.81249 13.8037 8.28299 13.413 7.84349C13.0223 7.40399 12.5513 7.18349 12 7.18199C11.4487 7.18049 10.978 7.40099 10.588 7.84349C10.198 8.28599 10.002 8.81549 10 9.43199C9.998 10.0485 10.194 10.5784 10.588 11.0216C10.982 11.4649 11.4527 11.685 12 11.682" fill="currentColor"/>
</svg>
