<svg width="14" height="14" viewBox="0 0 14 14" fill="none" xmlns="http://www.w3.org/2000/svg">
<path d="M9.19035 8.31547H8.72951L8.56618 8.15797C9.13785 7.49297 9.48201 6.62964 9.48201 5.69047C9.48201 3.5963 7.78451 1.8988 5.69035 1.8988C3.59618 1.8988 1.89868 3.5963 1.89868 5.69047C1.89868 7.78464 3.59618 9.48214 5.69035 9.48214C6.62951 9.48214 7.49285 9.13797 8.15785 8.5663L8.31535 8.72964V9.19047L11.232 12.1013L12.1012 11.2321L9.19035 8.31547ZM5.69035 8.31547C4.23785 8.31547 3.06535 7.14297 3.06535 5.69047C3.06535 4.23797 4.23785 3.06547 5.69035 3.06547C7.14285 3.06547 8.31535 4.23797 8.31535 5.69047C8.31535 7.14297 7.14285 8.31547 5.69035 8.31547Z" fill="current"/>
</svg>
